# xmcd
#
# Track frame offsets: 
#        150
#        15690
#        34722
#        51897
#        70206
#        90010
#        104858
#        117859
#        137662
#        155454
#        175556
#        193638
#        206841
#
# Disc length: 2987 seconds
#
# Revision: 1
# Processed by: cddbd v1.5.1PL0 Copyright (c) Steve Scherf et al.
# Submitted via: ExactAudioCopy v0.95a5
#
DISCID=ab0ba90d
DTITLE=Crush Collision Trio - Crush Collision Trio
DYEAR=2002
DGENRE=Blues
TTITLE0=All Night Long
TTITLE1=Milkcow Blues
TTITLE2=Need Some Of That
TTITLE3=Lonesome Blues
TTITLE4=Black Mattie
TTITLE5=Righteous And The Holy
TTITLE6=I Crave Pigmeat
TTITLE7=Stumblin' Block
TTITLE8=She Ain't No Good
TTITLE9=Canaan's Land
TTITLE10=You're Gonna Miss Me
TTITLE11=Jericho
TTITLE12=Salty Dog
EXTD=
EXTT0=
EXTT1=
EXTT2=
EXTT3=
EXTT4=
EXTT5=
EXTT6=
EXTT7=
EXTT8=
EXTT9=
EXTT10=
EXTT11=
EXTT12=
PLAYORDER=
